<svg xmlns="http://www.w3.org/2000/svg" width="620" height="688" viewBox="0 0 620 688">
  <defs>
    <style>
      .cls-1 {
        fill: #1b51e5;
        fill-rule: evenodd;
        opacity: 0.2;
      }
    </style>
  </defs>
  <path id="Path" class="cls-1" d="M73.48,263.2c-22.552,18.381-44.4,38.949-58.128,64.9-20.188,38.15-19.877,86.14.84,121.515C33.734,479.6,63.314,499.133,88.621,522.3c31.179,28.532,56.4,63.3,80.28,98.664,12.829,18.992,25.765,38.688,44.5,51.408,26.017,17.657,61.091,19.4,91.723,8.067s56.851-34.739,75.68-62.552c10.02-14.8,18.309-31.526,19.5-49.119,1.265-18.615-5.479-36.609-4.078-55.224,1.3-17.25,9.5-33.566,19.1-48.234a243.529,243.529,0,0,1,45.041-51.362c19.668-16.89,41.817-30.365,61.549-47.118s37.591-37.964,43.768-63.2c5.81-23.722.7-48.045-5.494-70.9a712.716,712.716,0,0,0-39.212-109.012c-10.747-23.6-23.02-46.872-40.994-64.937-34.361-34.545-89.073-45.9-136.323-28.295-39.147,14.586-70.759,46.24-97.982,79.374-24.825,30.215-47.471,68.649-79.653,91.075C135.326,222.314,102.937,239.2,73.48,263.2Z"/>
  <path id="Path_Copy" data-name="Path Copy" class="cls-1" d="M124.48,241.2c-22.552,18.381-44.4,38.949-58.128,64.9-20.188,38.15-19.877,86.14.84,121.515,17.541,29.993,47.121,49.522,72.428,72.691,31.179,28.532,56.405,63.3,80.28,98.664,12.829,18.992,25.765,38.688,44.5,51.408,26.017,17.657,61.091,19.4,91.723,8.067s56.851-34.739,75.68-62.552c10.02-14.8,18.309-31.526,19.5-49.119,1.265-18.615-5.479-36.609-4.078-55.224,1.3-17.25,9.506-33.566,19.1-48.234a243.529,243.529,0,0,1,45.041-51.362c19.668-16.89,41.817-30.365,61.549-47.118s37.591-37.964,43.768-63.2c5.81-23.722.7-48.045-5.494-70.9a712.716,712.716,0,0,0-39.212-109.012c-10.747-23.6-23.02-46.872-40.994-64.937C496.629,2.24,441.917-9.113,394.667,8.49c-39.147,14.586-70.759,46.24-97.982,79.374-24.825,30.215-47.47,68.649-79.653,91.075C186.326,200.314,153.937,217.2,124.48,241.2Z"/>
</svg>
